<svg width="221" height="220" viewBox="0 0 221 220" fill="none" xmlns="http://www.w3.org/2000/svg">
<circle cx="110.524" cy="110" r="110" fill="#F8F8F8"/>
<path d="M146.151 153.023L99.0201 126.094C95.526 124.093 92.6948 118.745 92.6948 114.142V82.4555C92.6948 77.8526 95.526 75.7846 99.0201 77.7303L146.151 104.658C149.645 106.66 152.476 112.008 152.476 116.611V148.297C152.476 152.9 149.645 155.013 146.151 153.023Z" fill="#E8A30A"/>
<path d="M129.489 165.654L150.543 153.191L137.78 124.539L117.961 134.234L129.489 165.654Z" fill="#E8A30A"/>
<path d="M74.5718 89.4611L95.3453 77.1978L100.547 115.378L74.5718 89.4611Z" fill="#E8A30A"/>
<path d="M125.501 165.253L78.3141 138.325C74.82 136.334 72 130.987 72 126.384V94.6746C72 90.0717 74.82 88.0037 78.3141 89.9494L125.501 116.889C128.984 118.879 131.815 124.227 131.815 128.83V160.516C131.815 165.119 128.984 167.243 125.501 165.253Z" fill="#F9CB07"/>
<path d="M97.7502 89.0269V64.9561C97.7502 55.1832 104.682 51.2251 113.232 56.0615C121.782 60.9424 128.714 72.8277 128.714 82.5895V106.66" stroke="#CC8B09" stroke-width="10.46" stroke-miterlimit="10"/>
<path d="M97.5374 93.118C101.329 93.118 104.402 91.3608 104.402 89.1933C104.402 87.0257 101.329 85.2686 97.5374 85.2686C93.7462 85.2686 90.6729 87.0257 90.6729 89.1933C90.6729 91.3608 93.7462 93.118 97.5374 93.118Z" fill="#CC8B09"/>
<path d="M128.714 109.507C132.505 109.507 135.579 107.75 135.579 105.582C135.579 103.415 132.505 101.657 128.714 101.657C124.923 101.657 121.85 103.415 121.85 105.582C121.85 107.75 124.923 109.507 128.714 109.507Z" fill="#CC8B09"/>
</svg>
